<svg xmlns="http://www.w3.org/2000/svg" viewBox="0 0 32 32" fill="white">
  <path d="M19.11 17.44c-.27-.14-1.6-.79-1.85-.88-.25-.09-.43-.14-.61.14-.18.27-.7.88-.86 1.06-.16.18-.32.2-.59.07-.27-.14-1.14-.42-2.18-1.34-.81-.72-1.36-1.6-1.52-1.87-.16-.27-.02-.41.12-.55.13-.13.27-.32.41-.48.14-.16.18-.27.27-.45.09-.18.05-.34-.02-.48-.07-.14-.61-1.47-.84-2.02-.22-.53-.44-.46-.61-.46h-.52c-.18 0-.48.07-.73.34-.25.27-.96.93-.96 2.26 0 1.33.99 2.62 1.13 2.8.14.18 1.95 2.98 4.73 4.18.66.29 1.17.46 1.57.59.66.21 1.26.18 1.73.11.53-.08 1.6-.65 1.83-1.27.23-.62.23-1.15.16-1.27-.07-.11-.25-.18-.52-.32z"/>
  <path d="M16 3C9.38 3 4 8.38 4 15c0 2.65.87 5.1 2.34 7.09L4 29l7.09-2.34A11.9 11.9 0 0 0 16 27c6.62 0 12-5.38 12-12S22.62 3 16 3zm0 21.8c-2.32 0-4.48-.74-6.25-2.01l-.45-.32-4.2 1.39 1.39-4.2-.29-.44A9.8 9.8 0 1 1 16 24.8z"/>
</svg>



<svg xmlns="http://www.w3.org/2000/svg" viewBox="0 0 32 32" fill="white">
  <path d="M16 7c2.44 0 2.73.01 3.7.06.9.04 1.39.19 1.72.32.44.17.75.38 1.08.71.33.33.54.64.71 1.08.13.33.28.82.32 1.72.05.97.06 1.26.06 3.7s-.01 2.73-.06 3.7c-.04.9-.19 1.39-.32 1.72-.17.44-.38.75-.71 1.08-.33.33-.64.54-1.08.71-.33.13-.82.28-1.72.32-.97.05-1.26.06-3.7.06s-2.73-.01-3.7-.06c-.9-.04-1.39-.19-1.72-.32-.44-.17-.75-.38-1.08-.71-.33-.33-.54-.64-.71-1.08-.13-.33-.28-.82-.32-1.72C7.01 18.73 7 18.44 7 16s.01-2.73.06-3.7c.04-.9.19-1.39.32-1.72.17-.44.38-.75.71-1.08.33-.33.64-.54 1.08-.71.33-.13.82-.28 1.72-.32C13.27 7.01 13.56 7 16 7zm0-2c-2.5 0-2.82.01-3.8.06-1.17.05-1.97.24-2.67.51-.73.28-1.35.65-1.97 1.27-.62.62-.99 1.24-1.27 1.97-.27.7-.46 1.5-.51 2.67C5.01 13.18 5 13.5 5 16s.01 2.82.06 3.8c.05 1.17.24 1.97.51 2.67.28.73.65 1.35 1.27 1.97.62.62 1.24.99 1.97 1.27.7.27 1.5.46 2.67.51 1 .05 1.32.06 3.8.06s2.82-.01 3.8-.06c1.17-.05 1.97-.24 2.67-.51.73-.28 1.35-.65 1.97-1.27.62-.62.99-1.24 1.27-1.97.27-.7.46-1.5.51-2.67.05-1 .06-1.32.06-3.8s-.01-2.82-.06-3.8c-.05-1.17-.24-1.97-.51-2.67-.28-.73-.65-1.35-1.27-1.97-.62-.62-1.24-.99-1.97-1.27-.7-.27-1.5-.46-2.67-.51C18.82 5.01 18.5 5 16 5z"/>
  <path d="M16 10.84A5.16 5.16 0 1 0 21.16 16 5.17 5.17 0 0 0 16 10.84zm0 8.5A3.34 3.34 0 1 1 19.34 16 3.34 3.34 0 0 1 16 19.34z"/>
  <circle cx="21.5" cy="10.5" r="1.2"/>
</svg>
